<svg width="546" height="141" viewBox="0 0 546 141" fill="none" xmlns="http://www.w3.org/2000/svg">
    <rect width="546" height="141" rx="6" fill="#4F515A"/>
    <path d="M516.149 33.3833L518.814 36.0484L524.083 30.7787L529.353 36.0484L532.048 33.353L526.779 28.0833L532.048 22.8136L529.383 20.1485L524.114 25.4182L518.965 20.2697L516.27 22.9651L521.418 28.1136L516.149 33.3833Z" fill="#3E4048"/>
    <path d="M31.424 106.272V116H33.184V104.512L31.424 106.272ZM35.2974 110.32C35.2974 113.568 37.9054 116.128 41.1214 116.128C44.3694 116.128 46.9614 113.568 46.9614 110.32C46.9614 107.072 44.3694 104.512 41.1214 104.512C37.9054 104.512 35.2974 107.072 35.2974 110.32ZM45.1854 110.32C45.1854 112.656 43.4734 114.496 41.1214 114.496C38.7694 114.496 37.0734 112.656 37.0734 110.32C37.0734 107.984 38.7694 106.144 41.1214 106.144C43.4734 106.144 45.1854 107.984 45.1854 110.32ZM48.3603 110.704V112.448H52.4883V110.704H48.3603ZM54.5959 106.272V116H56.3559V104.512L54.5959 106.272ZM63.2213 106.288L58.6453 116H60.5333L65.8612 104.64H58.2773V106.288H63.2213ZM73.561 108C71.545 108 70.569 109.056 70.569 110.56C70.569 111.696 71.129 112.608 72.217 113.008L69.849 116H71.913L74.105 113.2H75.017V116H76.761V108H73.561ZM75.017 111.744H73.561C72.761 111.744 72.233 111.376 72.233 110.624C72.233 109.856 72.697 109.456 73.561 109.456H75.017V111.744ZM84.8156 116H86.5596V108H84.8156V111.168H81.0076V108H79.2636V116H81.0076V112.736H84.8156V116ZM89.0765 108V116H92.6765C94.8365 116 95.7005 114.896 95.7005 113.632C95.7005 112.88 95.3965 112.128 94.5805 111.744C95.0925 111.36 95.1885 110.784 95.1885 110.272C95.1885 108.992 94.3885 108 92.2765 108H89.0765ZM90.8365 109.536H92.3725C92.9965 109.536 93.4285 109.792 93.4285 110.416C93.4285 111.008 92.9965 111.264 92.3725 111.28H90.8365V109.536ZM90.8365 112.56H92.7405C93.5245 112.56 93.9405 112.864 93.9405 113.52C93.9405 114.144 93.5245 114.448 92.7405 114.464H90.8365V112.56ZM102.991 115.424V116H104.751V108H102.991V108.592C102.431 108.144 101.695 107.872 100.847 107.872C98.4793 107.872 96.7353 109.664 96.7353 112C96.7353 114.336 98.4793 116.128 100.847 116.128C101.695 116.128 102.431 115.872 102.991 115.424ZM102.991 113.36C102.559 114.016 101.743 114.448 100.863 114.448C99.5033 114.448 98.5433 113.392 98.5433 112C98.5433 110.608 99.5033 109.552 100.863 109.552C101.743 109.552 102.559 109.984 102.991 110.64V113.36ZM108.992 108.688V108H107.248V118.944H108.992V115.312C109.584 115.84 110.4 116.128 111.264 116.128C113.616 116.128 115.264 114.272 115.264 112C115.264 109.728 113.616 107.872 111.264 107.872C110.4 107.872 109.584 108.16 108.992 108.688ZM108.992 113.44V110.56C109.408 109.92 110.144 109.504 111.088 109.504C112.512 109.504 113.472 110.608 113.472 112C113.472 113.392 112.512 114.496 111.088 114.496C110.144 114.496 109.408 114.08 108.992 113.44ZM119.624 108C117.608 108 116.632 109.056 116.632 110.56C116.632 111.696 117.192 112.608 118.28 113.008L115.912 116H117.976L120.168 113.2H121.08V116H122.824V108H119.624ZM121.08 111.744H119.624C118.824 111.744 118.296 111.376 118.296 110.624C118.296 109.856 118.76 109.456 119.624 109.456H121.08V111.744Z" fill="#7D7F87"/>
    <path d="M145.264 104.64V116H148.864C152.256 116 154.816 113.536 154.816 110.32C154.816 107.104 152.256 104.64 148.864 104.64H145.264ZM148.864 114.272H147.12V106.368H148.864C151.312 106.368 152.928 108.08 152.928 110.32C152.928 112.56 151.312 114.272 148.864 114.272ZM156.03 110.32C156.03 113.6 158.622 116.128 161.838 116.128C165.07 116.128 167.646 113.6 167.646 110.32C167.646 107.04 165.07 104.512 161.838 104.512C158.622 104.512 156.03 107.04 156.03 110.32ZM165.758 110.32C165.758 112.592 164.078 114.368 161.838 114.368C159.598 114.368 157.918 112.592 157.918 110.32C157.918 108.048 159.598 106.272 161.838 106.272C164.078 106.272 165.758 108.048 165.758 110.32ZM171.076 106.464V116H172.932V106.464H175.876V104.64H168.148V106.464H171.076ZM180.712 104.512L175.16 116H177.144L178.328 113.472H183.08L184.264 116H186.264L180.712 104.512ZM179.128 111.776L180.712 108.416L182.28 111.776H179.128ZM194.477 111.408L190.445 116H198.253V114.352H194.189L196.845 111.328C197.581 110.496 198.269 109.36 198.269 108.016C198.269 106.048 196.701 104.512 194.669 104.512C192.621 104.512 191.069 106.048 191.069 108.016C191.069 109.808 192.429 111.408 194.477 111.408ZM196.509 108.016C196.509 109.088 195.773 109.888 194.669 109.888C193.549 109.888 192.829 109.088 192.829 108.016C192.829 106.96 193.549 106.144 194.669 106.144C195.773 106.144 196.509 106.96 196.509 108.016Z" fill="#7D7F87"/>
    <path d="M33.36 20.64V32H35.216V26.64L40.288 32H42.688L37.392 26.384L42.208 20.64H40L35.216 26.352V20.64H33.36ZM42.6106 26.32C42.6106 29.6 45.2026 32.128 48.4186 32.128C51.6506 32.128 54.2266 29.6 54.2266 26.32C54.2266 23.04 51.6506 20.512 48.4186 20.512C45.2026 20.512 42.6106 23.04 42.6106 26.32ZM52.3386 26.32C52.3386 28.592 50.6586 30.368 48.4186 30.368C46.1786 30.368 44.4986 28.592 44.4986 26.32C44.4986 24.048 46.1786 22.272 48.4186 22.272C50.6586 22.272 52.3386 24.048 52.3386 26.32ZM56.3131 20.64V32H58.1691V27.136H63.8011V32H65.6571V20.64H63.8011V25.344H58.1691V20.64H56.3131ZM68.3756 20.64V32H70.2316V26.64L75.3036 32H77.7036L72.4076 26.384L77.2236 20.64H75.0156L70.2316 26.352V20.64H68.3756ZM86.1351 20.64C86.1351 20.64 84.5351 23.872 82.9671 27.008L79.6711 20.64H77.5431L81.9271 29.104L80.4871 32H82.5831L88.2791 20.64H86.1351ZM89.485 20.64V32H91.341V27.872H92.877C95.229 27.872 96.845 26.368 96.845 24.256C96.845 22.112 95.229 20.64 92.877 20.64H89.485ZM92.797 26.144H91.341V22.368H92.797C94.157 22.368 94.957 23.12 94.957 24.256C94.957 25.392 94.157 26.144 92.797 26.144ZM98.1263 26.32C98.1263 29.6 100.718 32.128 103.934 32.128C105.534 32.128 106.91 31.568 107.95 30.48L106.75 29.168C106.046 29.92 105.038 30.368 103.934 30.368C101.694 30.368 100.014 28.592 100.014 26.32C100.014 24.048 101.694 22.272 103.934 22.272C105.038 22.272 106.046 22.72 106.75 23.472L107.95 22.16C106.91 21.072 105.534 20.512 103.934 20.512C100.718 20.512 98.1263 23.04 98.1263 26.32ZM117.868 20.512L112.316 32H114.3L115.484 29.472H120.236L121.42 32H123.42L117.868 20.512ZM116.284 27.776L117.868 24.416L119.436 27.776H116.284ZM124.938 20.64V32H126.794V27.136H132.426V32H134.282V20.64H132.426V25.344H126.794V20.64H124.938ZM141.353 20.512L135.801 32H137.785L138.969 29.472H143.721L144.905 32H146.905L141.353 20.512ZM139.769 27.776L141.353 24.416L142.921 27.776H139.769ZM152.9 24.416L156.452 32H158.452L152.9 20.512L147.348 32H149.332L152.9 24.416ZM167.729 24.752L159.969 32.128V20.64H161.825V27.888L169.585 20.512V32H167.729V24.752ZM174.201 22.464V32H176.057V22.464H179.001V20.64H171.273V22.464H174.201ZM188.448 24.752L180.688 32.128V20.64H182.544V27.888L190.304 20.512V32H188.448V24.752ZM193.032 20.64V32H194.888V26.64L199.96 32H202.36L197.064 26.384L201.88 20.64H199.672L194.888 26.352V20.64H193.032ZM202.283 26.32C202.283 29.6 204.875 32.128 208.091 32.128C211.323 32.128 213.899 29.6 213.899 26.32C213.899 23.04 211.323 20.512 208.091 20.512C204.875 20.512 202.283 23.04 202.283 26.32ZM212.011 26.32C212.011 28.592 210.331 30.368 208.091 30.368C205.851 30.368 204.171 28.592 204.171 26.32C204.171 24.048 205.851 22.272 208.091 22.272C210.331 22.272 212.011 24.048 212.011 26.32ZM215.985 20.64V32H220.337C222.529 32 224.113 30.72 224.113 28.736C224.113 27.328 223.345 26.4 222.289 25.952C222.961 25.472 223.345 24.768 223.345 23.744C223.345 22.064 222.065 20.64 220.001 20.64H215.985ZM219.761 25.424H217.841V22.352H219.761C220.897 22.352 221.473 23.056 221.473 23.888C221.473 24.752 220.897 25.424 219.761 25.424ZM220.337 30.272H217.841V27.008H220.337C221.617 27.008 222.241 27.728 222.241 28.656C222.241 29.584 221.617 30.272 220.337 30.272Z" fill="white"/>
    <path d="M384.137 31H385.529V22.48H378.809V31H380.201V23.824H384.137V31ZM388.799 25.516V25H387.491V33.208H388.799V30.484C389.243 30.88 389.855 31.096 390.503 31.096C392.267 31.096 393.503 29.704 393.503 28C393.503 26.296 392.267 24.904 390.503 24.904C389.855 24.904 389.243 25.12 388.799 25.516ZM388.799 29.08V26.92C389.111 26.44 389.663 26.128 390.371 26.128C391.439 26.128 392.159 26.956 392.159 28C392.159 29.044 391.439 29.872 390.371 29.872C389.663 29.872 389.111 29.56 388.799 29.08ZM399.179 31H400.487V24.904L396.275 28.576V25H394.967V31.096L399.179 27.472V31ZM401.906 25.996L402.758 26.656C403.034 26.224 403.478 25.996 404.054 25.996C404.618 25.996 404.978 26.2 404.978 26.68C404.978 27.196 404.474 27.4 404.03 27.4H403.226V28.408H404.09C404.738 28.408 405.11 28.72 405.11 29.188C405.11 29.62 404.786 29.98 404.066 29.98C403.394 29.98 402.95 29.704 402.638 29.212L401.666 29.872C402.23 30.724 403.034 31.096 404.078 31.096C405.818 31.096 406.454 30.136 406.454 29.296C406.454 28.732 406.166 28.156 405.59 27.868C405.998 27.568 406.262 27.172 406.262 26.644C406.262 25.708 405.446 24.904 404.126 24.904C403.142 24.904 402.458 25.264 401.906 25.996ZM407.333 28C407.333 29.752 408.653 31.096 410.441 31.096C412.217 31.096 413.549 29.752 413.549 28C413.549 26.248 412.217 24.904 410.441 24.904C408.653 24.904 407.333 26.248 407.333 28ZM412.193 28C412.193 29.044 411.461 29.836 410.441 29.836C409.409 29.836 408.689 29.044 408.689 28C408.689 26.956 409.409 26.164 410.441 26.164C411.461 26.164 412.193 26.956 412.193 28ZM415.03 25V31H417.73C419.35 31 419.998 30.172 419.998 29.224C419.998 28.66 419.77 28.096 419.158 27.808C419.542 27.52 419.614 27.088 419.614 26.704C419.614 25.744 419.014 25 417.43 25H415.03ZM416.35 26.152H417.502C417.97 26.152 418.294 26.344 418.294 26.812C418.294 27.256 417.97 27.448 417.502 27.46H416.35V26.152ZM416.35 28.42H417.778C418.366 28.42 418.678 28.648 418.678 29.14C418.678 29.608 418.366 29.836 417.778 29.848H416.35V28.42ZM420.774 28C420.774 29.752 422.094 31.096 423.882 31.096C425.658 31.096 426.99 29.752 426.99 28C426.99 26.248 425.658 24.904 423.882 24.904C422.094 24.904 420.774 26.248 420.774 28ZM425.634 28C425.634 29.044 424.902 29.836 423.882 29.836C422.85 29.836 422.13 29.044 422.13 28C422.13 26.956 422.85 26.164 423.882 26.164C424.902 26.164 425.634 26.956 425.634 28ZM433.487 22.48H432.467C432.443 23.248 432.047 23.62 431.471 23.62C430.895 23.62 430.487 23.248 430.475 22.48H429.455C429.491 23.776 430.307 24.436 431.471 24.436C432.635 24.436 433.439 23.788 433.487 22.48ZM432.671 31H433.979V24.904L429.767 28.576V25H428.459V31.096L432.671 27.472V31ZM443.108 24.904H442.892V22.48H441.596V24.904H441.38C439.424 24.904 438.212 26.32 438.212 28C438.212 29.68 439.424 31.096 441.38 31.096H441.596V33.208H442.892V31.096H443.108C445.064 31.096 446.264 29.68 446.264 28C446.264 26.32 445.064 24.904 443.108 24.904ZM441.38 26.104H441.596V29.896H441.38C440.252 29.896 439.544 29.032 439.544 28C439.544 26.968 440.252 26.104 441.38 26.104ZM442.892 29.896V26.104H443.108C444.236 26.104 444.944 26.968 444.944 28C444.944 29.032 444.236 29.896 443.108 29.896H442.892ZM447.317 28C447.317 29.752 448.637 31.096 450.425 31.096C452.201 31.096 453.533 29.752 453.533 28C453.533 26.248 452.201 24.904 450.425 24.904C448.637 24.904 447.317 26.248 447.317 28ZM452.177 28C452.177 29.044 451.445 29.836 450.425 29.836C449.393 29.836 448.673 29.044 448.673 28C448.673 26.956 449.393 26.164 450.425 26.164C451.445 26.164 452.177 26.956 452.177 28ZM459.166 31H460.474V25H459.166V27.376H456.31V25H455.002V31H456.31V28.552H459.166V31ZM468.65 29.824H467.81L465.122 24.904L462.434 29.824H461.594V32.476H462.77V31H467.474V32.476H468.65V29.824ZM466.334 29.824H463.91L465.134 27.544L466.334 29.824ZM474.862 26.176H476.578V25H471.934V26.176H473.554V31H474.862V26.176ZM479.282 30.688L478.202 33.208H479.594L483.026 25H481.61L479.966 29.14L478.334 25H476.918L479.282 30.688ZM485.291 25.516V25H483.983V33.208H485.291V30.484C485.735 30.88 486.347 31.096 486.995 31.096C488.759 31.096 489.995 29.704 489.995 28C489.995 26.296 488.759 24.904 486.995 24.904C486.347 24.904 485.735 25.12 485.291 25.516ZM485.291 29.08V26.92C485.603 26.44 486.155 26.128 486.863 26.128C487.931 26.128 488.651 26.956 488.651 28C488.651 29.044 487.931 29.872 486.863 29.872C486.155 29.872 485.603 29.56 485.291 29.08ZM495.743 30.568V31H497.063V25H495.743V25.444C495.323 25.108 494.771 24.904 494.135 24.904C492.359 24.904 491.051 26.248 491.051 28C491.051 29.752 492.359 31.096 494.135 31.096C494.771 31.096 495.323 30.904 495.743 30.568ZM495.743 29.02C495.419 29.512 494.807 29.836 494.147 29.836C493.127 29.836 492.407 29.044 492.407 28C492.407 26.956 493.127 26.164 494.147 26.164C494.807 26.164 495.419 26.488 495.743 26.98V29.02Z" fill="white"/>
    <path d="M44.024 62.656V76H47.864V58.96H33.728V76H37.568V62.656H44.024ZM62.2256 58.96C62.2256 58.96 60.1376 63.136 58.0736 67.312L53.7296 58.96H49.2416L55.8656 71.752L53.7536 76H58.1216L66.5936 58.96H62.2256ZM70.7782 62.752V76H74.6182V62.752H78.7222V58.96H66.6982V62.752H70.7782ZM87.2437 64.912H84.7477V58.96H80.9077V76H87.2437C90.5797 76 93.0757 73.648 93.0757 70.456C93.0757 67.264 90.5797 64.912 87.2437 64.912ZM87.1957 72.4H84.7477V68.488H87.1957C88.4437 68.488 89.3557 69.184 89.3557 70.456C89.3557 71.728 88.4437 72.4 87.1957 72.4ZM100.806 58.96V76H108.318C111.198 76 113.478 73.744 113.478 70.936C113.478 69.112 112.518 67.72 111.078 66.952C111.822 66.208 112.278 65.224 112.278 64.024C112.278 61.24 109.998 58.96 107.214 58.96H100.806ZM106.782 65.848H104.646V62.464H106.782C107.814 62.464 108.558 63.232 108.558 64.168C108.558 65.104 107.814 65.848 106.782 65.848ZM107.958 72.472H104.646V69.088H107.958C108.99 69.088 109.734 69.856 109.734 70.792C109.734 71.728 108.99 72.472 107.958 72.472ZM137.129 79.552V72.304H134.873V58.96H131.033V72.304H125.177V58.96H121.337V76H133.433V79.552H137.129ZM139.689 58.96V76H150.249V72.208H143.529V69.328H148.809V65.632H143.529V62.752H150.249V58.96H139.689ZM156.814 67.456L151.438 76H155.902L159.526 70.144L163.15 76H167.614L162.238 67.456L167.254 58.96H162.814L159.526 64.624L156.238 58.96H151.798L156.814 67.456Z" fill="white"/>
    <path d="M361.002 61.284V76H364.954V57.332L361.002 61.284ZM367.961 66.77C367.961 71.97 372.277 76.208 377.477 76.208C382.677 76.208 386.993 71.97 386.993 66.77C386.993 61.57 382.677 57.332 377.477 57.332C372.277 57.332 367.961 61.57 367.961 66.77ZM383.041 66.77C383.041 69.968 380.727 72.542 377.477 72.542C374.227 72.542 371.913 69.968 371.913 66.77C371.913 63.572 374.227 60.998 377.477 60.998C380.727 60.998 383.041 63.572 383.041 66.77ZM389.01 66.77C389.01 71.97 393.326 76.208 398.526 76.208C403.726 76.208 408.042 71.97 408.042 66.77C408.042 61.57 403.726 57.332 398.526 57.332C393.326 57.332 389.01 61.57 389.01 66.77ZM404.09 66.77C404.09 69.968 401.776 72.542 398.526 72.542C395.276 72.542 392.962 69.968 392.962 66.77C392.962 63.572 395.276 60.998 398.526 60.998C401.776 60.998 404.09 63.572 404.09 66.77ZM415.772 66.77C415.772 71.97 420.088 76.208 425.288 76.208C430.488 76.208 434.804 71.97 434.804 66.77C434.804 61.57 430.488 57.332 425.288 57.332C420.088 57.332 415.772 61.57 415.772 66.77ZM430.852 66.77C430.852 69.968 428.538 72.542 425.288 72.542C422.038 72.542 419.724 69.968 419.724 66.77C419.724 63.572 422.038 60.998 425.288 60.998C428.538 60.998 430.852 63.572 430.852 66.77ZM436.821 66.77C436.821 71.97 441.137 76.208 446.337 76.208C451.537 76.208 455.853 71.97 455.853 66.77C455.853 61.57 451.537 57.332 446.337 57.332C441.137 57.332 436.821 61.57 436.821 66.77ZM451.901 66.77C451.901 69.968 449.587 72.542 446.337 72.542C443.087 72.542 440.773 69.968 440.773 66.77C440.773 63.572 443.087 60.998 446.337 60.998C449.587 60.998 451.901 63.572 451.901 66.77ZM457.869 66.77C457.869 71.97 462.185 76.208 467.385 76.208C472.585 76.208 476.901 71.97 476.901 66.77C476.901 61.57 472.585 57.332 467.385 57.332C462.185 57.332 457.869 61.57 457.869 66.77ZM472.949 66.77C472.949 69.968 470.635 72.542 467.385 72.542C464.135 72.542 461.821 69.968 461.821 66.77C461.821 63.572 464.135 60.998 467.385 60.998C470.635 60.998 472.949 63.572 472.949 66.77ZM490.351 69.812H491.677C495.291 69.812 497.995 67.342 497.995 63.78C497.995 59.932 495.291 57.54 491.677 57.54H486.191V65.938H484.111V69.812H486.191V70.93H484.111V73.894H486.191V76H490.351V73.894H493.887V70.93H490.351V69.812ZM490.351 61.44H491.625C492.977 61.44 493.965 62.168 493.965 63.806C493.965 65.184 492.977 65.938 491.625 65.938H490.351V61.44Z" fill="#F2D84B"/>
    <rect x="430" y="99" width="68" height="21" rx="10.5" fill="#F2D84B"/>
    <rect x="335" y="99" width="87" height="21" rx="10.5" fill="#7D7F87"/>
    <path d="M447.324 104.48C447.324 104.48 446.124 106.904 444.948 109.256L442.476 104.48H440.88L444.168 110.828L443.088 113H444.66L448.932 104.48H447.324ZM447.903 110C447.903 111.752 449.223 113.096 450.999 113.096C451.959 113.096 452.739 112.7 453.291 112.1L452.391 111.176C452.079 111.536 451.623 111.812 450.999 111.812C449.979 111.812 449.259 111.044 449.259 110C449.259 108.956 449.979 108.188 450.999 108.188C451.623 108.188 452.079 108.464 452.391 108.824L453.291 107.9C452.739 107.3 451.959 106.904 450.999 106.904C449.223 106.904 447.903 108.248 447.903 110ZM458.887 113H460.339L457.051 106.904L453.763 113H455.191L457.063 109.544L458.887 113ZM460.501 110C460.501 111.752 461.821 113.096 463.609 113.096C465.385 113.096 466.717 111.752 466.717 110C466.717 108.248 465.385 106.904 463.609 106.904C461.821 106.904 460.501 108.248 460.501 110ZM465.361 110C465.361 111.044 464.629 111.836 463.609 111.836C462.577 111.836 461.857 111.044 461.857 110C461.857 108.956 462.577 108.164 463.609 108.164C464.629 108.164 465.361 108.956 465.361 110ZM468.198 107V113H470.898C472.518 113 473.166 112.172 473.166 111.224C473.166 110.66 472.938 110.096 472.326 109.808C472.71 109.52 472.782 109.088 472.782 108.704C472.782 107.744 472.182 107 470.598 107H468.198ZM469.518 108.152H470.67C471.138 108.152 471.462 108.344 471.462 108.812C471.462 109.256 471.138 109.448 470.67 109.46H469.518V108.152ZM469.518 110.42H470.946C471.534 110.42 471.846 110.648 471.846 111.14C471.846 111.608 471.534 111.836 470.946 111.848H469.518V110.42ZM478.562 113H479.87V106.904L475.658 110.576V107H474.35V113.096L478.562 109.472V113ZM483.761 107C482.249 107 481.517 107.792 481.517 108.92C481.517 109.772 481.937 110.456 482.753 110.756L480.977 113H482.525L484.169 110.9H484.853V113H486.161V107H483.761ZM484.853 109.808H483.761C483.161 109.808 482.765 109.532 482.765 108.968C482.765 108.392 483.113 108.092 483.761 108.092H484.853V109.808Z" fill="#4F515A"/>
    <path d="M349.284 107.312L351.948 113H353.448L349.284 104.384L345.12 113H346.608L349.284 107.312ZM358.714 113H360.022V106.904L355.81 110.576V107H354.502V113.096L358.714 109.472V113ZM368.197 111.824H367.357L364.669 106.904L361.981 111.824H361.141V114.476H362.317V113H367.021V114.476H368.197V111.824ZM365.881 111.824H363.457L364.681 109.544L365.881 111.824ZM368.544 110C368.544 111.752 369.864 113.096 371.64 113.096C372.696 113.096 373.572 112.652 374.088 112.052L373.2 111.104C372.888 111.452 372.36 111.788 371.64 111.788C370.74 111.788 370.044 111.212 369.912 110.36H374.484V110C374.4 108.08 373.284 106.904 371.616 106.904C369.864 106.904 368.544 108.248 368.544 110ZM369.948 109.34C370.164 108.584 370.812 108.116 371.52 108.116C372.312 108.116 372.876 108.524 373.032 109.34H369.948ZM377.256 107.516V107H375.948V115.208H377.256V112.484C377.7 112.88 378.312 113.096 378.96 113.096C380.724 113.096 381.96 111.704 381.96 110C381.96 108.296 380.724 106.904 378.96 106.904C378.312 106.904 377.7 107.12 377.256 107.516ZM377.256 111.08V108.92C377.568 108.44 378.12 108.128 378.828 108.128C379.896 108.128 380.616 108.956 380.616 110C380.616 111.044 379.896 111.872 378.828 111.872C378.12 111.872 377.568 111.56 377.256 111.08ZM386.544 105.86L388.596 105.368V104.132L386.292 104.684C384.192 105.188 383.028 106.64 383.028 109.172V109.664C383.028 111.68 384.192 113.096 386.112 113.096C387.876 113.096 389.184 111.716 389.184 110C389.184 108.464 388.104 107.12 386.304 107.12C385.476 107.12 384.78 107.444 384.3 108.032C384.48 107.06 384.912 106.256 386.544 105.86ZM384.348 110.012C384.348 109.064 385.008 108.284 386.112 108.284C387.168 108.284 387.864 109.064 387.864 110.012C387.864 111.116 387.144 111.884 386.112 111.884C385.068 111.884 384.348 111.104 384.348 110.012ZM390.235 110C390.235 111.752 391.555 113.096 393.343 113.096C395.119 113.096 396.451 111.752 396.451 110C396.451 108.248 395.119 106.904 393.343 106.904C391.555 106.904 390.235 108.248 390.235 110ZM395.095 110C395.095 111.044 394.363 111.836 393.343 111.836C392.311 111.836 391.591 111.044 391.591 110C391.591 108.956 392.311 108.164 393.343 108.164C394.363 108.164 395.095 108.956 395.095 110ZM399.228 107.516V107H397.92V115.208H399.228V112.484C399.672 112.88 400.284 113.096 400.932 113.096C402.696 113.096 403.932 111.704 403.932 110C403.932 108.296 402.696 106.904 400.932 106.904C400.284 106.904 399.672 107.12 399.228 107.516ZM399.228 111.08V108.92C399.54 108.44 400.092 108.128 400.8 108.128C401.868 108.128 402.588 108.956 402.588 110C402.588 111.044 401.868 111.872 400.8 111.872C400.092 111.872 399.54 111.56 399.228 111.08ZM411.334 111.824H410.494L407.806 106.904L405.118 111.824H404.278V114.476H405.454V113H410.158V114.476H411.334V111.824ZM409.018 111.824H406.594L407.818 109.544L409.018 111.824Z" fill="#4F515A"/>
</svg>
